<svg width="1102" height="575" viewBox="0 0 1102 575" fill="none" xmlns="http://www.w3.org/2000/svg">
<path d="M44 541.437C44 541.437 186.476 408.354 264.267 319.449C342.058 230.544 531.816 13.5468 605.973 30.4846C676.495 46.5792 621.357 169.648 608.251 206.164C595.145 242.679 481.708 478.562 550.137 413.047C618.567 347.532 696.799 214.009 761.961 233.33C818.827 250.195 768.459 358.494 761.006 389.51C751.461 429.288 785.383 385.001 801.315 360.657C817.248 336.314 885.678 222.112 941.919 229.627C998.161 237.143 977.235 298.442 976.758 350.832C976.281 403.222 989.57 469.873 1058 472.659C1058 472.659 946.618 497.296 906.309 452.385C866 407.474 912.403 305.188 899.518 308.927C886.632 312.667 841 402.672 809.135 432.404C777.27 462.137 729.031 484.098 702.268 460.487C679.397 440.287 697.533 365.863 707.628 341.776C717.724 317.689 727.374 287.601 709.244 304.711C691.114 321.821 641.512 385.697 621.357 409.087C601.203 432.478 532.479 513.684 473.962 490.074C406.89 462.98 455.753 351.785 470.144 324.325C484.534 296.865 599.231 65.0145 549.403 106.15C501.903 150.651 285.46 422.711 262.065 444.759C234.772 475.416 174.069 565.323 44 541.474L44 541.437Z" fill="url(#paint0_linear_45_312)"/>
<defs>
<linearGradient id="paint0_linear_45_312" x1="44" y1="289.203" x2="1183.63" y2="766.4" gradientUnits="userSpaceOnUse">
<stop offset="0.39" stop-color="#13869E"/>
<stop offset="0.53" stop-color="#0A2544"/>
</linearGradient>
</defs>
</svg>
